<?xml version="1.0" encoding="UTF-8"?>
<svg width="780px" height="780px" viewBox="0 0 780 780" version="1.1" xmlns="http://www.w3.org/2000/svg" xmlns:xlink="http://www.w3.org/1999/xlink">
    <title>编组 85</title>
    <defs>
        <polygon id="path-1" points="0 0 500 0 500 428.571429 0 428.571429"></polygon>
    </defs>
    <g id="页面-1" stroke="none" stroke-width="1" fill="none" fill-rule="evenodd">
        <g id="编组-85">
            <rect id="矩形" fill="#191B1D" x="0" y="0" width="780" height="780" rx="120"></rect>
            <g id="goplus单" transform="translate(140.000000, 140.000000)">
                <rect id="矩形" x="0" y="0" width="500" height="500"></rect>
                <g id="Fill-1-Clipped" transform="translate(0.000000, 35.714286)">
                    <mask id="mask-2" fill="white">
                        <use xlink:href="#path-1"></use>
                    </mask>
                    <g id="path-1"></g>
                    <path d="M299.740306,106.46942 L184.244499,106.46942 C112.35776,106.46942 54.0820557,166.171956 54.0820557,239.817708 C54.0820557,313.462585 112.35776,373.165121 184.244499,373.165121 L198.910281,373.165121 L212.660412,373.165121 L269.033132,373.165121 C283.462534,373.165121 295.157783,361.181932 295.157783,346.401704 C295.157783,331.621476 283.462534,319.638287 269.033132,319.638287 L213.57777,319.638287 L212.660412,319.638287 L194.326904,319.638287 C146.765088,319.638287 108.164368,284.126031 108.164368,240.059104 C108.164368,195.992175 146.765088,159.900046 194.326904,159.900046 L252.821068,160.08634 C252.821068,160.05223 252.822775,160.017245 252.822775,159.98226 L325.391345,159.98226 C325.391345,191.111787 298.565235,216.345491 265.474636,216.345491 C264.365273,216.345491 263.324178,216.313131 262.330871,216.258029 L262.330871,216.341119 L185.619256,216.341119 C172.711388,216.341119 162.246679,227.061354 162.246679,240.286505 C162.246679,253.511656 172.711388,264.234515 185.619256,264.234515 L208.077888,264.234515 L212.660412,264.234515 L213.57777,264.234515 L269.033132,264.234515 C313.33086,264.234515 349.239241,301.021969 349.239241,346.401704 C349.239241,391.782314 313.33086,428.571514 269.033132,428.571514 L212.660412,428.571514 L184.244499,428.571514 C82.489435,428.571514 -0.000256006902,344.062966 -0.000256006902,239.817708 C-0.000256006902,135.57245 82.489435,51.0638996 184.244499,51.0638996 L244.743197,51.0638996 L299.740306,51.0638996 L352.90526,51.0638996 C352.90526,81.3485429 329.184514,105.942898 299.740306,106.44668 L299.740306,106.46942 Z M494.662257,77.9077818 L463.1333,77.9077818 L463.1333,113.071063 C463.1333,116.09288 460.7439,118.542695 457.796407,118.542695 L429.325882,118.542695 C426.378389,118.542695 423.988136,116.09288 423.988136,113.071063 L423.988136,77.9077818 L393.239146,77.9077818 C390.28995,77.9077818 387.90055,75.4579671 387.90055,72.43615 L387.90055,45.99197 C387.90055,42.9701529 390.28995,40.5229618 393.239146,40.5229618 L423.988136,40.5229618 L423.988136,5.47163189 C423.988136,2.44981473 426.378389,0 429.325882,0 L457.796407,0 C460.7439,0 463.1333,2.44981473 463.1333,5.47163189 L463.1333,40.5229618 L494.662257,40.5229618 C497.60975,40.5229618 500,42.9701529 500,45.99197 L500,72.43615 C500,75.4579671 497.60975,77.9077818 494.662257,77.9077818" id="Fill-1" fill="#43B58B" fill-rule="nonzero" mask="url(#mask-2)"></path>
                </g>
            </g>
        </g>
    </g>
</svg>